G04*
G04 #@! TF.GenerationSoftware,Altium Limited,Altium Designer,22.11.1 (43)*
G04*
G04 Layer_Color=8421504*
%FSLAX44Y44*%
%MOMM*%
G71*
G04*
G04 #@! TF.SameCoordinates,72847C5C-CB26-43ED-9D8D-7EBA7966BEA9*
G04*
G04*
G04 #@! TF.FilePolarity,Positive*
G04*
G01*
G75*
%ADD13R,1.3500X1.0000*%
%ADD14R,0.6502X1.0008*%
%ADD15R,2.0472X2.1920*%
%ADD16R,1.2598X3.6093*%
G36*
X884225Y1214450D02*
Y1202944D01*
X883717Y1202461D01*
X879627Y1202411D01*
Y1206906D01*
X875106D01*
Y1202512D01*
X870915Y1202461D01*
X870407Y1202944D01*
Y1214450D01*
X870915Y1214958D01*
X883717D01*
X884225Y1214450D01*
D02*
G37*
G36*
Y1192962D02*
Y1181456D01*
X883717Y1180948D01*
X870915D01*
X870407Y1181456D01*
Y1192962D01*
X870915Y1193444D01*
X875106D01*
Y1188999D01*
X879627D01*
Y1193394D01*
X883717Y1193444D01*
X884225Y1192962D01*
D02*
G37*
G36*
X1486840Y1177595D02*
Y1164793D01*
X1486332Y1164311D01*
X1474851D01*
X1474343Y1164793D01*
X1474292Y1168908D01*
X1478788D01*
Y1173404D01*
X1474394D01*
X1474343Y1177595D01*
X1474851Y1178103D01*
X1486332D01*
X1486840Y1177595D01*
D02*
G37*
G36*
X1465250D02*
X1465301Y1173505D01*
X1460805D01*
Y1169010D01*
X1465199D01*
X1465250Y1164793D01*
X1464742Y1164311D01*
X1453236D01*
X1452753Y1164793D01*
Y1177595D01*
X1453236Y1178103D01*
X1464742D01*
X1465250Y1177595D01*
D02*
G37*
G36*
X1030453Y966521D02*
Y953719D01*
X1029945Y953211D01*
X1018438D01*
X1017956Y953719D01*
X1017905Y957809D01*
X1022401D01*
Y962330D01*
X1018007D01*
X1017956Y966521D01*
X1018438Y967029D01*
X1029945D01*
X1030453Y966521D01*
D02*
G37*
G36*
X1008939D02*
Y962330D01*
X1004494D01*
Y957809D01*
X1008888D01*
X1008939Y953719D01*
X1008456Y953211D01*
X996950D01*
X996442Y953719D01*
Y966521D01*
X996950Y967029D01*
X1008456D01*
X1008939Y966521D01*
D02*
G37*
G36*
X1487703Y551231D02*
Y538429D01*
X1487195Y537947D01*
X1475715D01*
X1475207Y538429D01*
X1475156Y542544D01*
X1479652D01*
Y547040D01*
X1475257D01*
X1475207Y551231D01*
X1475715Y551739D01*
X1487195D01*
X1487703Y551231D01*
D02*
G37*
G36*
X1466113D02*
X1466164Y547141D01*
X1461668D01*
Y542646D01*
X1466063D01*
X1466113Y538429D01*
X1465605Y537947D01*
X1454099D01*
X1453617Y538429D01*
Y551231D01*
X1454099Y551739D01*
X1465605D01*
X1466113Y551231D01*
D02*
G37*
G36*
X596189Y533222D02*
Y521716D01*
X595681Y521233D01*
X591490D01*
Y525678D01*
X586969D01*
Y521284D01*
X582879Y521233D01*
X582371Y521716D01*
Y533222D01*
X582879Y533730D01*
X595681D01*
X596189Y533222D01*
D02*
G37*
G36*
X450139D02*
Y521716D01*
X449631Y521233D01*
X445440D01*
Y525678D01*
X440919D01*
Y521284D01*
X436829Y521233D01*
X436321Y521716D01*
Y533222D01*
X436829Y533730D01*
X449631D01*
X450139Y533222D01*
D02*
G37*
G36*
X734619Y531012D02*
Y519506D01*
X734111Y519024D01*
X729920D01*
Y523469D01*
X725399D01*
Y519074D01*
X721309Y519024D01*
X720801Y519506D01*
Y531012D01*
X721309Y531520D01*
X734111D01*
X734619Y531012D01*
D02*
G37*
G36*
X586969Y507771D02*
X591490D01*
Y512166D01*
X595681Y512216D01*
X596189Y511734D01*
Y500228D01*
X595681Y499720D01*
X582879D01*
X582371Y500228D01*
Y511734D01*
X582879Y512216D01*
X586969Y512267D01*
Y507771D01*
D02*
G37*
G36*
X440919D02*
X445440D01*
Y512166D01*
X449631Y512216D01*
X450139Y511734D01*
Y500228D01*
X449631Y499720D01*
X436829D01*
X436321Y500228D01*
Y511734D01*
X436829Y512216D01*
X440919Y512267D01*
Y507771D01*
D02*
G37*
G36*
X725399Y505562D02*
X729920D01*
Y509956D01*
X734111Y510007D01*
X734619Y509524D01*
Y498018D01*
X734111Y497510D01*
X721309D01*
X720801Y498018D01*
Y509524D01*
X721309Y510007D01*
X725399Y510057D01*
Y505562D01*
D02*
G37*
G36*
X781964Y497891D02*
Y485089D01*
X781456Y484581D01*
X769950D01*
X769468Y485089D01*
Y489280D01*
X773913D01*
Y493801D01*
X769518D01*
X769468Y497891D01*
X769950Y498399D01*
X781456D01*
X781964Y497891D01*
D02*
G37*
G36*
X760451D02*
X760501Y493801D01*
X756006D01*
Y489280D01*
X760400D01*
X760451Y485089D01*
X759968Y484581D01*
X748462D01*
X747954Y485089D01*
Y497891D01*
X748462Y498399D01*
X759968D01*
X760451Y497891D01*
D02*
G37*
G36*
X642772D02*
Y485089D01*
X642264Y484581D01*
X630758D01*
X630276Y485089D01*
Y489280D01*
X634721D01*
Y493801D01*
X630326D01*
X630276Y497891D01*
X630758Y498399D01*
X642264D01*
X642772Y497891D01*
D02*
G37*
G36*
X621259D02*
X621309Y493801D01*
X616814D01*
Y489280D01*
X621208D01*
X621259Y485089D01*
X620776Y484581D01*
X609270D01*
X608762Y485089D01*
Y497891D01*
X609270Y498399D01*
X620776D01*
X621259Y497891D01*
D02*
G37*
G36*
X495376Y495351D02*
Y482549D01*
X494868Y482041D01*
X483362D01*
X482879Y482549D01*
Y486740D01*
X487324D01*
Y491261D01*
X482930D01*
X482879Y495351D01*
X483362Y495859D01*
X494868D01*
X495376Y495351D01*
D02*
G37*
G36*
X473862D02*
X473913Y491261D01*
X469417D01*
Y486740D01*
X473812D01*
X473862Y482549D01*
X473380Y482041D01*
X461874D01*
X461366Y482549D01*
Y495351D01*
X461874Y495859D01*
X473380D01*
X473862Y495351D01*
D02*
G37*
G36*
X734619Y485343D02*
Y473837D01*
X734111Y473329D01*
X730021Y473278D01*
Y477774D01*
X725526D01*
Y473380D01*
X721309Y473329D01*
X720827Y473837D01*
Y485343D01*
X721309Y485826D01*
X734111D01*
X734619Y485343D01*
D02*
G37*
G36*
X596189D02*
Y473837D01*
X595681Y473329D01*
X591591Y473278D01*
Y477774D01*
X587096D01*
Y473380D01*
X582879Y473329D01*
X582397Y473837D01*
Y485343D01*
X582879Y485826D01*
X595681D01*
X596189Y485343D01*
D02*
G37*
G36*
X450139D02*
Y473837D01*
X449631Y473329D01*
X445541Y473278D01*
Y477774D01*
X441046D01*
Y473380D01*
X436829Y473329D01*
X436347Y473837D01*
Y485343D01*
X436829Y485826D01*
X449631D01*
X450139Y485343D01*
D02*
G37*
G36*
X725424Y459791D02*
X729920D01*
Y464185D01*
X734111Y464236D01*
X734619Y463728D01*
Y452247D01*
X734111Y451739D01*
X721309D01*
X720827Y452247D01*
Y463728D01*
X721309Y464236D01*
X725424Y464287D01*
Y459791D01*
D02*
G37*
G36*
X586994D02*
X591490D01*
Y464185D01*
X595681Y464236D01*
X596189Y463728D01*
Y452247D01*
X595681Y451739D01*
X582879D01*
X582397Y452247D01*
Y463728D01*
X582879Y464236D01*
X586994Y464287D01*
Y459791D01*
D02*
G37*
G36*
X440944D02*
X445440D01*
Y464185D01*
X449631Y464236D01*
X450139Y463728D01*
Y452247D01*
X449631Y451739D01*
X436829D01*
X436347Y452247D01*
Y463728D01*
X436829Y464236D01*
X440944Y464287D01*
Y459791D01*
D02*
G37*
G36*
X1027201Y457251D02*
Y444449D01*
X1026693Y443941D01*
X1015187D01*
X1014705Y444449D01*
Y448640D01*
X1019150D01*
Y453161D01*
X1014755D01*
X1014705Y457251D01*
X1015187Y457759D01*
X1026693D01*
X1027201Y457251D01*
D02*
G37*
G36*
X1005688D02*
X1005738Y453161D01*
X1001243D01*
Y448640D01*
X1005637D01*
X1005688Y444449D01*
X1005205Y443941D01*
X993699D01*
X993191Y444449D01*
Y457251D01*
X993699Y457759D01*
X1005205D01*
X1005688Y457251D01*
D02*
G37*
G36*
X941451Y449732D02*
Y438226D01*
X940943Y437744D01*
X936854Y437693D01*
Y442189D01*
X932332D01*
Y437794D01*
X928141Y437744D01*
X927633Y438226D01*
Y449732D01*
X928141Y450240D01*
X940943D01*
X941451Y449732D01*
D02*
G37*
G36*
Y428244D02*
Y416738D01*
X940943Y416230D01*
X928141D01*
X927633Y416738D01*
Y428244D01*
X928141Y428727D01*
X932332D01*
Y424282D01*
X936854D01*
Y428676D01*
X940943Y428727D01*
X941451Y428244D01*
D02*
G37*
G36*
X1697863Y401218D02*
Y389712D01*
X1697355Y389230D01*
X1693164D01*
Y393675D01*
X1688643D01*
Y389280D01*
X1684553Y389230D01*
X1684045Y389712D01*
Y401218D01*
X1684553Y401726D01*
X1697355D01*
X1697863Y401218D01*
D02*
G37*
G36*
X1600759Y397662D02*
Y386156D01*
X1600251Y385674D01*
X1596161Y385623D01*
Y390119D01*
X1591640D01*
Y385724D01*
X1587449Y385674D01*
X1586941Y386156D01*
Y397662D01*
X1587449Y398170D01*
X1600251D01*
X1600759Y397662D01*
D02*
G37*
G36*
Y376174D02*
Y364668D01*
X1600251Y364160D01*
X1587449D01*
X1586941Y364668D01*
Y376174D01*
X1587449Y376657D01*
X1591640D01*
Y372212D01*
X1596161D01*
Y376606D01*
X1600251Y376657D01*
X1600759Y376174D01*
D02*
G37*
G36*
X1688643Y375768D02*
X1693164D01*
Y380162D01*
X1697355Y380213D01*
X1697863Y379730D01*
Y368224D01*
X1697355Y367716D01*
X1684553D01*
X1684045Y368224D01*
Y379730D01*
X1684553Y380213D01*
X1688643Y380263D01*
Y375768D01*
D02*
G37*
G36*
X1733601Y279095D02*
Y267589D01*
X1733093Y267081D01*
X1729003Y267030D01*
Y271526D01*
X1724508D01*
Y267132D01*
X1720291Y267081D01*
X1719809Y267589D01*
Y279095D01*
X1720291Y279578D01*
X1733093D01*
X1733601Y279095D01*
D02*
G37*
G36*
X1515770Y277165D02*
Y264363D01*
X1515262Y263855D01*
X1503756D01*
X1503274Y264363D01*
X1503223Y268453D01*
X1507719D01*
Y272974D01*
X1503324D01*
X1503274Y277165D01*
X1503756Y277673D01*
X1515262D01*
X1515770Y277165D01*
D02*
G37*
G36*
X1494257D02*
Y272974D01*
X1489812D01*
Y268453D01*
X1494206D01*
X1494257Y264363D01*
X1493774Y263855D01*
X1482268D01*
X1481760Y264363D01*
Y277165D01*
X1482268Y277673D01*
X1493774D01*
X1494257Y277165D01*
D02*
G37*
G36*
X1724406Y253543D02*
X1728902D01*
Y257937D01*
X1733093Y257988D01*
X1733601Y257480D01*
Y245999D01*
X1733093Y245491D01*
X1720291D01*
X1719809Y245999D01*
Y257480D01*
X1720291Y257988D01*
X1724406Y258039D01*
Y253543D01*
D02*
G37*
D13*
X877316Y1162558D02*
D03*
Y1140562D02*
D03*
D14*
X1050671Y462128D02*
D03*
X1060171Y442138D02*
D03*
X1041171D02*
D03*
X939622Y500228D02*
D03*
X949122Y480238D02*
D03*
X930123D02*
D03*
D15*
X1002182Y499110D02*
D03*
X1049401D02*
D03*
D16*
X622808Y138506D02*
D03*
Y204394D02*
D03*
X67818Y138506D02*
D03*
Y204394D02*
D03*
X344678Y138506D02*
D03*
Y204394D02*
D03*
X909828Y138506D02*
D03*
Y204394D02*
D03*
M02*
