G04*
G04 #@! TF.GenerationSoftware,Altium Limited,Altium Designer,22.11.1 (43)*
G04*
G04 Layer_Physical_Order=1*
G04 Layer_Color=255*
%FSLAX44Y44*%
%MOMM*%
G71*
G04*
G04 #@! TF.SameCoordinates,72847C5C-CB26-43ED-9D8D-7EBA7966BEA9*
G04*
G04*
G04 #@! TF.FilePolarity,Positive*
G04*
G01*
G75*
%ADD12C,0.1524*%
%ADD13R,1.3500X1.0000*%
%ADD14R,0.6502X1.0008*%
%ADD15R,2.0472X2.1920*%
%ADD16R,1.2598X3.6093*%
%ADD40C,1.8009*%
%ADD45R,1.4097X1.3487*%
%ADD46R,1.3767X1.1328*%
%ADD47R,1.1328X1.3767*%
%ADD48R,1.3487X1.4097*%
%ADD49C,0.5080*%
%ADD50C,1.0160*%
%ADD51C,1.7780*%
%ADD52R,1.7000X1.7000*%
%ADD53C,1.7000*%
%ADD54R,1.8009X1.8009*%
%ADD55C,1.6002*%
%ADD56C,1.9990*%
%ADD57C,2.9997*%
%ADD58R,2.9997X2.9997*%
%ADD59R,1.6993X1.5748*%
%ADD60C,1.6993*%
%ADD61R,1.6002X1.6002*%
%ADD62R,1.6002X1.5748*%
%ADD63R,1.6993X1.6993*%
%ADD64R,1.6993X1.6993*%
%ADD65R,1.5240X1.6002*%
%ADD66C,4.0000*%
%ADD67C,0.8382*%
G36*
X225552Y1227582D02*
Y1203706D01*
X209423Y1187577D01*
Y1072769D01*
X184518Y1047864D01*
X182258D01*
Y1045604D01*
X178054Y1041400D01*
Y1021842D01*
X202335Y997561D01*
X199892Y995118D01*
X197425Y991427D01*
X195726Y987325D01*
X194860Y982970D01*
Y978530D01*
X195726Y974175D01*
X197425Y970073D01*
X199892Y966382D01*
X203032Y963242D01*
X206723Y960775D01*
X210825Y959076D01*
X215180Y958210D01*
X219620D01*
X220252Y958336D01*
X221234Y957530D01*
Y900684D01*
X128778Y808228D01*
Y764032D01*
X128778Y764032D01*
X128778D01*
X128004Y763131D01*
X98933Y734060D01*
X76200D01*
X43180Y701040D01*
X22860D01*
Y701294D01*
X16256Y707898D01*
Y794258D01*
X59436Y837438D01*
X65024D01*
X71882Y844042D01*
Y875538D01*
X108712Y912368D01*
X132588D01*
X138684Y918464D01*
Y951738D01*
X128270Y962152D01*
X112522D01*
X89408Y985266D01*
Y1060704D01*
X135382Y1106678D01*
Y1125982D01*
X111760Y1149604D01*
X111506D01*
X86614Y1174496D01*
Y1213104D01*
X87122D01*
X110744Y1236726D01*
X182258D01*
Y1227328D01*
X204330D01*
Y1236726D01*
X216408D01*
X225552Y1227582D01*
D02*
G37*
G36*
X1466850Y554114D02*
X1461922D01*
Y544830D01*
Y535546D01*
X1466850D01*
Y528320D01*
X1456690Y518160D01*
X1372870D01*
X1370444Y515734D01*
X1369174Y515896D01*
Y517004D01*
X1358900D01*
Y505460D01*
X1356360D01*
Y517004D01*
X1346086D01*
Y505460D01*
X1343660D01*
Y535940D01*
X1381174Y556260D01*
X1466850D01*
Y554114D01*
D02*
G37*
G36*
X1459230Y1196730D02*
X1468952D01*
X1468970Y1196711D01*
X1468997Y1196645D01*
X1469067Y1196541D01*
X1469305Y1195862D01*
X1469331Y1195683D01*
X1469355Y1195615D01*
Y1195544D01*
X1469390Y1195367D01*
Y1181742D01*
X1469387Y1181406D01*
X1468998Y1180954D01*
X1468577Y1180478D01*
X1461059D01*
Y1171194D01*
X1459789D01*
Y1169924D01*
X1450200D01*
Y1165938D01*
X1438832D01*
X1433830Y1170940D01*
Y1201420D01*
X1440180Y1207770D01*
X1446920D01*
Y1196730D01*
X1456690D01*
Y1207770D01*
X1459230D01*
Y1196730D01*
D02*
G37*
G36*
X1717408Y262115D02*
Y253797D01*
X1726692D01*
Y251257D01*
X1717408D01*
Y242938D01*
X1717408Y242938D01*
X1717408D01*
X1716714Y241988D01*
X1715770Y241300D01*
X1697990D01*
X1692910Y246380D01*
Y256540D01*
X1699260Y262890D01*
X1716459D01*
X1717408Y262115D01*
D02*
G37*
G36*
X1755902Y318262D02*
Y297994D01*
X1745108Y269486D01*
X1735976D01*
Y271272D01*
X1726692D01*
X1717408D01*
Y269486D01*
X1712468D01*
X1701800Y284855D01*
Y318262D01*
X1709674Y326136D01*
X1748028Y326136D01*
X1755902Y318262D01*
D02*
G37*
G36*
X1492250Y556260D02*
X1503680Y544830D01*
X1503680Y500380D01*
X1496060Y492760D01*
X1479550D01*
X1470660Y501650D01*
Y534450D01*
X1471079Y535546D01*
X1471930Y535546D01*
X1479398D01*
Y544830D01*
Y554114D01*
X1471526Y554114D01*
X1470875Y555299D01*
X1471282Y556260D01*
X1492250Y556260D01*
D02*
G37*
G36*
X1484630Y1196730D02*
X1484813D01*
X1487621Y1197482D01*
X1490139Y1198936D01*
X1492194Y1200991D01*
X1493573Y1203380D01*
X1494097Y1203657D01*
X1494883Y1203867D01*
X1496060Y1202690D01*
Y1167130D01*
X1493520Y1164590D01*
X1489393D01*
Y1169924D01*
X1479804D01*
Y1171194D01*
X1478534D01*
Y1180478D01*
X1473112D01*
X1472837Y1180594D01*
X1472683Y1180735D01*
X1471980Y1181716D01*
X1471977Y1181729D01*
X1471980Y1181742D01*
Y1195367D01*
X1471944Y1195544D01*
Y1195615D01*
X1471930Y1195688D01*
Y1195872D01*
X1471895Y1196049D01*
X1471869Y1196229D01*
X1471808Y1196402D01*
X1471797Y1196475D01*
X1471774Y1196542D01*
X1471748Y1196722D01*
X1471510Y1197400D01*
X1471414Y1197562D01*
X1471412Y1197571D01*
X1471398Y1197596D01*
X1471389Y1197636D01*
X1471362Y1197702D01*
X1471290Y1197810D01*
X1471220Y1197980D01*
X1471150Y1198084D01*
X1471048Y1198186D01*
X1470897Y1198440D01*
X1470880Y1198459D01*
X1470832Y1198495D01*
X1470801Y1198542D01*
X1470793Y1198548D01*
X1470784Y1198561D01*
X1470660Y1198644D01*
Y1205677D01*
X1471097Y1205974D01*
X1472558Y1205430D01*
X1473072Y1203509D01*
X1474526Y1200991D01*
X1476581Y1198936D01*
X1479099Y1197482D01*
X1481907Y1196730D01*
X1482090D01*
Y1207770D01*
X1484630D01*
Y1196730D01*
D02*
G37*
%LPC*%
G36*
X204330Y1224788D02*
X194564D01*
Y1215022D01*
X204330D01*
Y1224788D01*
D02*
G37*
G36*
X192024D02*
X182258D01*
Y1215022D01*
X192024D01*
Y1224788D01*
D02*
G37*
G36*
X131839Y1210069D02*
X115570D01*
Y1193800D01*
X131839D01*
Y1210069D01*
D02*
G37*
G36*
X113030D02*
X96761D01*
Y1193800D01*
X113030D01*
Y1210069D01*
D02*
G37*
G36*
X131839Y1191260D02*
X115570D01*
Y1174991D01*
X131839D01*
Y1191260D01*
D02*
G37*
G36*
X113030D02*
X96761D01*
Y1174991D01*
X113030D01*
Y1191260D01*
D02*
G37*
G36*
X131839Y1027189D02*
X115570D01*
Y1010920D01*
X131839D01*
Y1027189D01*
D02*
G37*
G36*
X113030D02*
X96761D01*
Y1010920D01*
X113030D01*
Y1027189D01*
D02*
G37*
G36*
X131839Y1008380D02*
X115570D01*
Y992111D01*
X131839D01*
Y1008380D01*
D02*
G37*
G36*
X113030D02*
X96761D01*
Y992111D01*
X113030D01*
Y1008380D01*
D02*
G37*
G36*
X49910Y811721D02*
X49530D01*
Y800456D01*
X60795D01*
Y800836D01*
X59941Y804024D01*
X58290Y806882D01*
X55957Y809216D01*
X53098Y810866D01*
X49910Y811721D01*
D02*
G37*
G36*
X46990D02*
X46610D01*
X43422Y810866D01*
X40563Y809216D01*
X38230Y806882D01*
X36579Y804024D01*
X35725Y800836D01*
Y800456D01*
X46990D01*
Y811721D01*
D02*
G37*
G36*
X60795Y797916D02*
X49530D01*
Y786651D01*
X49910D01*
X53098Y787505D01*
X55957Y789155D01*
X58290Y791489D01*
X59941Y794347D01*
X60795Y797535D01*
Y797916D01*
D02*
G37*
G36*
X46990D02*
X35725D01*
Y797535D01*
X36579Y794347D01*
X38230Y791489D01*
X40563Y789155D01*
X43422Y787505D01*
X46610Y786651D01*
X46990D01*
Y797916D01*
D02*
G37*
G36*
X36296Y728815D02*
X35916D01*
Y717550D01*
X47181D01*
Y717930D01*
X46326Y721118D01*
X44676Y723977D01*
X42342Y726310D01*
X39484Y727961D01*
X36296Y728815D01*
D02*
G37*
G36*
X33376D02*
X32995D01*
X29807Y727961D01*
X26949Y726310D01*
X24615Y723977D01*
X22965Y721118D01*
X22111Y717930D01*
Y717550D01*
X33376D01*
Y728815D01*
D02*
G37*
G36*
X47181Y715010D02*
X35916D01*
Y703745D01*
X36296D01*
X39484Y704599D01*
X42342Y706250D01*
X44676Y708583D01*
X46326Y711442D01*
X47181Y714630D01*
Y715010D01*
D02*
G37*
G36*
X33376D02*
X22111D01*
Y714630D01*
X22965Y711442D01*
X24615Y708583D01*
X26949Y706250D01*
X29807Y704599D01*
X32995Y703745D01*
X33376D01*
Y715010D01*
D02*
G37*
G36*
X1459382Y554114D02*
X1451064D01*
Y546100D01*
X1459382D01*
Y554114D01*
D02*
G37*
G36*
Y543560D02*
X1451064D01*
Y535546D01*
X1459382D01*
Y543560D01*
D02*
G37*
G36*
X1458519Y1180478D02*
X1450200D01*
Y1172464D01*
X1458519D01*
Y1180478D01*
D02*
G37*
G36*
X1706118Y258596D02*
Y253238D01*
X1711476D01*
X1711120Y254566D01*
X1710234Y256101D01*
X1708981Y257354D01*
X1707446Y258240D01*
X1706118Y258596D01*
D02*
G37*
G36*
X1703578D02*
X1702250Y258240D01*
X1700715Y257354D01*
X1699462Y256101D01*
X1698576Y254566D01*
X1698220Y253238D01*
X1703578D01*
Y258596D01*
D02*
G37*
G36*
X1711476Y250698D02*
X1706118D01*
Y245340D01*
X1707446Y245696D01*
X1708981Y246582D01*
X1710234Y247835D01*
X1711120Y249370D01*
X1711476Y250698D01*
D02*
G37*
G36*
X1703578D02*
X1698220D01*
X1698576Y249370D01*
X1699462Y247835D01*
X1700715Y246582D01*
X1702250Y245696D01*
X1703578Y245340D01*
Y250698D01*
D02*
G37*
G36*
X1715888Y320421D02*
X1715770D01*
Y311150D01*
X1725041D01*
Y311268D01*
X1724323Y313949D01*
X1722935Y316352D01*
X1720972Y318315D01*
X1718569Y319703D01*
X1715888Y320421D01*
D02*
G37*
G36*
X1750441D02*
X1741170D01*
Y311150D01*
X1750441D01*
Y320421D01*
D02*
G37*
G36*
X1713230D02*
X1713112D01*
X1710431Y319703D01*
X1708028Y318315D01*
X1706065Y316352D01*
X1704677Y313949D01*
X1703959Y311268D01*
Y311150D01*
X1713230D01*
Y320421D01*
D02*
G37*
G36*
X1738630D02*
X1729359D01*
Y311150D01*
X1738630D01*
Y320421D01*
D02*
G37*
G36*
X1750441Y308610D02*
X1741170D01*
Y299339D01*
X1750441D01*
Y308610D01*
D02*
G37*
G36*
X1738630D02*
X1729359D01*
Y299339D01*
X1738630D01*
Y308610D01*
D02*
G37*
G36*
X1725041D02*
X1715770D01*
Y299339D01*
X1715888D01*
X1718569Y300057D01*
X1720972Y301445D01*
X1722935Y303408D01*
X1724323Y305811D01*
X1725041Y308492D01*
Y308610D01*
D02*
G37*
G36*
X1713230D02*
X1703959D01*
Y308492D01*
X1704677Y305811D01*
X1706065Y303408D01*
X1708028Y301445D01*
X1710431Y300057D01*
X1713112Y299339D01*
X1713230D01*
Y308610D01*
D02*
G37*
G36*
X1735976Y282131D02*
X1727962D01*
Y273812D01*
X1735976D01*
Y282131D01*
D02*
G37*
G36*
X1725422D02*
X1717408D01*
Y273812D01*
X1725422D01*
Y282131D01*
D02*
G37*
G36*
X1481938Y554114D02*
Y546100D01*
X1490256D01*
Y554114D01*
X1481938D01*
D02*
G37*
G36*
X1490256Y543560D02*
X1481938D01*
Y535546D01*
X1490256D01*
Y543560D01*
D02*
G37*
G36*
X1486018Y516001D02*
X1485900D01*
Y506730D01*
X1495171D01*
Y506848D01*
X1494453Y509529D01*
X1493065Y511932D01*
X1491102Y513895D01*
X1488699Y515283D01*
X1486018Y516001D01*
D02*
G37*
G36*
X1483360D02*
X1483242D01*
X1480561Y515283D01*
X1478158Y513895D01*
X1476195Y511932D01*
X1474807Y509529D01*
X1474089Y506848D01*
Y506730D01*
X1483360D01*
Y516001D01*
D02*
G37*
G36*
X1495171Y504190D02*
X1485900D01*
Y494919D01*
X1486018D01*
X1488699Y495637D01*
X1491102Y497025D01*
X1493065Y498988D01*
X1494453Y501391D01*
X1495171Y504072D01*
Y504190D01*
D02*
G37*
G36*
X1483360D02*
X1474089D01*
Y504072D01*
X1474807Y501391D01*
X1476195Y498988D01*
X1478158Y497025D01*
X1480561Y495637D01*
X1483242Y494919D01*
X1483360D01*
Y504190D01*
D02*
G37*
G36*
X1489393Y1180478D02*
X1481074D01*
Y1172464D01*
X1489393D01*
Y1180478D01*
D02*
G37*
%LPD*%
D12*
X1440154Y402918D02*
G03*
X1437640Y403352I-2514J-7059D01*
G01*
X1442203Y271318D02*
G03*
X1442188Y271334I-1093J-1062D01*
G01*
X1367973Y258023D02*
G03*
X1367938Y258059I-1112J-1042D01*
G01*
X1363435Y253987D02*
G03*
X1363424Y253998I-1085J-1070D01*
G01*
X1402966Y220949D02*
G03*
X1403003Y220911I1110J1044D01*
G01*
X1431770Y231351D02*
G03*
X1431724Y231397I-5306J-5291D01*
G01*
X1023014Y960548D02*
X1023442Y960120D01*
X935990Y1055421D02*
X1023014Y968397D01*
X1023442Y960120D02*
X1062126D01*
X1062482Y959764D01*
X1023014Y960548D02*
Y968397D01*
X935990Y1055421D02*
Y1098550D01*
X1405318Y451549D02*
X1459230Y505460D01*
X1405318Y441642D02*
Y451549D01*
X1398778Y443992D02*
Y470408D01*
X1433830Y505460D01*
X1394714Y491744D02*
X1408430Y505460D01*
X1394714Y445835D02*
Y491744D01*
X1383030Y504150D02*
X1389649Y497531D01*
Y446517D02*
Y497531D01*
X1383030Y504150D02*
Y505460D01*
X1054264Y1146567D02*
X1105814Y1198118D01*
X984007Y1146567D02*
X1054264D01*
X935990Y1098550D02*
X984007Y1146567D01*
X952627Y1081024D02*
X960450Y1088847D01*
X1731391Y356489D02*
X1742186Y345694D01*
X1705493Y356489D02*
X1731391D01*
X1676908Y327904D02*
X1705493Y356489D01*
X1505934Y361061D02*
X1698570D01*
X1507617Y356997D02*
X1700254D01*
X1497105Y352233D02*
X1505934Y361061D01*
X1663700Y309880D02*
X1663954Y346456D01*
X1460500Y309880D02*
X1507617Y356997D01*
X1700254D02*
X1703810Y360553D01*
X1698570Y361061D02*
X1702126Y364617D01*
X1396492Y411480D02*
X1521714D01*
X1564132Y369062D01*
X1510538Y407416D02*
X1549400Y368554D01*
X1383792Y407416D02*
X1510538D01*
X1389888Y403352D02*
X1437640D01*
X1440154Y402918D02*
X1500532D01*
X1440154D02*
X1440154D01*
X1500532D02*
X1534655Y368795D01*
X1758823Y359283D02*
X1781937Y382397D01*
X1421827Y352233D02*
X1497105D01*
X1702126Y364617D02*
X1734758D01*
X1736028Y363347D01*
X1747556D01*
X1748826Y364617D01*
X1757807D01*
X1734344Y359283D02*
X1758823D01*
X1733074Y360553D02*
X1734344Y359283D01*
X1703810Y360553D02*
X1733074D01*
X1676908Y43180D02*
Y327904D01*
X1757807Y364617D02*
X1786382Y393192D01*
X1367491Y258505D02*
X1367938Y258059D01*
X1441741Y271780D02*
X1442188Y271334D01*
X1400043Y262636D02*
X1400936Y261743D01*
X1201490Y266700D02*
X1404779D01*
X1446276Y275844D02*
X1616710Y105410D01*
X1199807Y262636D02*
X1400043D01*
X1194883Y254441D02*
X1362981D01*
X1203841Y275844D02*
X1446276D01*
X1180913Y293024D02*
X1202157Y271780D01*
X1196915Y258505D02*
X1367491D01*
X1202984Y282448D02*
X1451046D01*
X1202157Y271780D02*
X1441741D01*
X1400936Y261743D02*
X1431724Y231397D01*
X1363435Y253987D02*
X1536700Y80002D01*
X1404779Y266700D02*
X1569800Y101680D01*
X1451046Y282448D02*
X1627068Y106426D01*
X1184977Y294708D02*
X1203841Y275844D01*
X1367973Y258023D02*
X1402966Y220949D01*
X1442203Y271318D02*
X1638300Y71882D01*
X1362981Y254441D02*
X1363424Y253998D01*
X1176782Y291408D02*
X1201490Y266700D01*
X1172718Y289725D02*
X1199807Y262636D01*
X1384300Y309880D02*
Y314706D01*
X1421827Y352233D01*
X1663954Y386080D02*
X1691462D01*
X1534372Y345652D02*
X1535684Y346964D01*
X1533398Y338582D02*
Y346710D01*
Y338582D02*
X1562100Y309880D01*
X1548384Y340487D02*
Y347472D01*
Y340487D02*
X1563287Y325584D01*
X1563878Y346710D02*
X1576070D01*
X1612900Y309880D01*
X1636522Y346202D02*
X1637287Y310893D01*
X1638300Y309880D01*
X1786382Y393192D02*
Y459283D01*
X1781937Y382397D02*
X1809496D01*
X1753362Y370840D02*
X1781302Y398780D01*
X1741678Y370840D02*
X1753362D01*
X1662938Y385064D02*
X1663700Y384302D01*
X1662938Y385064D02*
X1663954Y386080D01*
X1594942Y386258D02*
X1635836D01*
X1593850Y387350D02*
X1594942Y386258D01*
X1635836D02*
X1637030Y385064D01*
X1562276Y369062D02*
X1564132D01*
X1389442Y402906D02*
X1389888Y403352D01*
X1384300Y397764D02*
X1389442Y402906D01*
X1437132Y368300D02*
X1437386Y368554D01*
Y396875D02*
X1437640Y397129D01*
X1437386Y368554D02*
Y396875D01*
X1603248Y93980D02*
X1603340D01*
X1612350Y84970D01*
X1627068Y106426D02*
X1629918D01*
X1638300Y55880D02*
Y71882D01*
X1612350Y56431D02*
Y84970D01*
X1508760Y270764D02*
X1511300Y273304D01*
Y309880D01*
X1485900Y273634D02*
Y309880D01*
Y273634D02*
X1488770Y270764D01*
Y259082D02*
Y270764D01*
X1466765Y231987D02*
Y234019D01*
Y231987D02*
X1474216Y224536D01*
X1460627Y240157D02*
X1466765Y234019D01*
X1445006Y240157D02*
X1460627D01*
X1488770Y259082D02*
X1500124Y247728D01*
Y247142D02*
Y247728D01*
X1135953Y624840D02*
X1230630Y530163D01*
X932369Y624840D02*
X1135953D01*
X1134269Y620776D02*
X1226566Y528479D01*
X934053Y620776D02*
X1134269D01*
X1226312Y428117D02*
X1226566Y428371D01*
X1226312Y426212D02*
Y428117D01*
X935736Y616712D02*
X1132586D01*
X1222502Y526796D01*
X307848Y326993D02*
Y352203D01*
X350615Y394970D01*
X320548Y359156D02*
X352298Y390906D01*
X320548Y279400D02*
Y359156D01*
X1142629Y394970D02*
X1180913Y356686D01*
X303784Y353887D02*
X348931Y399034D01*
X352298Y390906D02*
X467614D01*
X348931Y399034D02*
X1144312D01*
X350615Y394970D02*
X1142629D01*
X273558Y232410D02*
X320548Y279400D01*
X303784Y328676D02*
Y353887D01*
X1144312Y399034D02*
X1184977Y358369D01*
X598424Y379984D02*
X856996D01*
X592328Y332740D02*
Y373888D01*
X598424Y379984D01*
X574294Y314706D02*
X592328Y332740D01*
X1443609Y238760D02*
X1445006Y240157D01*
X574294Y265176D02*
Y314706D01*
X540258Y231140D02*
X574294Y265176D01*
X550926Y322072D02*
X569214D01*
X550926Y318008D02*
X570897D01*
X586740Y333851D02*
Y375412D01*
X569214Y322072D02*
X582676Y335534D01*
Y377095D01*
X570897Y318008D02*
X586740Y333851D01*
X467614Y390906D02*
X504952Y353568D01*
Y266446D02*
Y353568D01*
Y266446D02*
X540258Y231140D01*
X1642054Y77526D02*
Y94291D01*
X1629918Y106426D02*
X1642054Y94291D01*
X1411224Y224282D02*
X1424940D01*
X1404366Y231140D02*
X1411224Y224282D01*
X1403002Y220911D02*
X1403011Y220903D01*
X1380490Y208788D02*
X1387856Y216154D01*
X1294384Y208788D02*
X1380490D01*
X1220724Y422148D02*
X1287526D01*
X1321816Y456438D02*
X1371600D01*
X1287526Y422148D02*
X1321816Y456438D01*
X1300029Y417957D02*
X1320003Y437931D01*
X1012825Y417957D02*
X1300029D01*
X1339442Y421386D02*
X1349756D01*
X1394594Y414317D02*
X1395414Y413496D01*
X1382740Y408468D02*
X1383792Y407416D01*
X1358900Y395224D02*
X1405318Y441642D01*
X1394594Y414317D02*
Y417696D01*
X1358900Y309880D02*
Y395224D01*
X1393281Y419009D02*
X1394594Y417696D01*
X1372362Y397764D02*
X1384300D01*
X1332738Y426466D02*
X1334362D01*
X1339442Y421386D01*
X1358604Y432350D02*
Y436238D01*
Y432350D02*
X1359916Y431038D01*
X1357438Y437404D02*
X1358604Y436238D01*
X1357438Y437404D02*
Y438088D01*
X1356360Y439166D02*
X1357438Y438088D01*
X1404366Y429514D02*
X1425829D01*
X1437386Y342900D02*
Y345440D01*
Y331978D02*
Y342900D01*
X1375664Y452374D02*
X1380744D01*
X1395414Y412558D02*
X1396492Y411480D01*
X1395414Y412558D02*
Y413496D01*
X1403604Y428752D02*
X1404366Y429514D01*
X1425829D02*
X1437640Y417703D01*
X1362632Y446786D02*
X1367713Y441706D01*
X1337659Y446786D02*
X1362632D01*
X1367713Y441706D02*
X1367790D01*
X1282700Y309880D02*
Y339568D01*
X1308100Y309880D02*
Y359221D01*
X1282700Y339568D02*
X1389649Y446517D01*
X1308100Y359221D02*
X1394714Y445835D01*
X1304766Y413893D02*
X1337659Y446786D01*
X1305814Y312166D02*
X1308100Y309880D01*
X1562448Y100231D02*
X1587500Y75179D01*
X1431770Y231351D02*
X1562448Y100231D01*
X1587500Y55880D02*
Y75179D01*
X1403011Y220903D02*
X1510659Y115730D01*
X1142746Y232410D02*
X1185164Y189992D01*
X1266698D01*
X1238825Y250377D02*
X1328674Y160528D01*
X1189803Y250377D02*
X1238825D01*
X1312164Y164338D02*
X1333500Y143002D01*
X1311843Y164338D02*
X1312164D01*
X1312418Y147320D02*
X1317636Y142102D01*
Y96912D02*
Y142102D01*
X1229868Y246313D02*
X1311843Y164338D01*
X1506763Y104192D02*
X1509078Y101876D01*
X1503769Y102460D02*
X1505500Y104192D01*
X1536700Y55880D02*
Y80002D01*
X1509078Y58102D02*
Y101876D01*
X1503760Y102460D02*
X1503769D01*
X1511275Y115727D02*
X1517771Y115694D01*
X1505500Y104192D02*
X1506763D01*
X1510659Y115730D02*
X1511275Y115727D01*
X1517771Y115694D02*
X1517774Y115697D01*
X1226566Y428625D02*
Y528479D01*
X1226312Y428371D02*
X1226566Y428625D01*
X1230630Y443357D02*
Y530163D01*
Y443357D02*
X1245616Y428371D01*
X386842Y404368D02*
X1300988D01*
X1335786Y439166D01*
X332740Y458470D02*
X386842Y404368D01*
X895096Y576072D02*
X935736Y616712D01*
X891032Y577755D02*
X934053Y620776D01*
X886968Y579439D02*
X932369Y624840D01*
X895096Y462723D02*
Y576072D01*
X891032Y464407D02*
Y577755D01*
X886968Y466090D02*
Y579439D01*
X722122Y421386D02*
X842264D01*
X573278Y417322D02*
X843947D01*
X443738Y413258D02*
X845631D01*
X842264Y421386D02*
X886968Y466090D01*
X843947Y417322D02*
X891032Y464407D01*
X845631Y413258D02*
X895096Y462723D01*
X1781302Y398780D02*
Y574599D01*
X1728521Y627380D02*
X1781302Y574599D01*
X1333500Y378714D02*
X1398778Y443992D01*
X1335786Y439166D02*
X1356360D01*
X1371600Y456438D02*
X1375664Y452374D01*
X1333500Y309880D02*
Y378714D01*
X845820Y311658D02*
Y342327D01*
X840740Y313436D02*
Y342995D01*
X845820Y342327D02*
X876365Y372872D01*
X874681Y376936D02*
X1136142D01*
X826008Y334010D02*
X872998Y381000D01*
X1137825D01*
X840740Y342995D02*
X874681Y376936D01*
X838549Y352298D02*
X859028Y372777D01*
X813054Y352298D02*
X838549D01*
X859028Y372777D02*
Y377952D01*
X876365Y372872D02*
X1063498D01*
X582676Y377095D02*
X594709Y389128D01*
X1141287D02*
X1176782Y353633D01*
X1136142Y376936D02*
X1161288Y351790D01*
X1139603Y385064D02*
X1172718Y351949D01*
X586740Y375412D02*
X596392Y385064D01*
X594709Y389128D02*
X1141287D01*
X1137825Y381000D02*
X1165860Y352965D01*
X596392Y385064D02*
X1139603D01*
X1063498Y372872D02*
X1092708Y343662D01*
X1210056Y400304D02*
X1228636D01*
X1230795Y398145D01*
X1245616D01*
X1189228Y379476D02*
X1210056Y400304D01*
X1226058Y375158D02*
Y394081D01*
X856996Y379984D02*
X859028Y377952D01*
X840740Y306578D02*
X845820Y311658D01*
X814324Y232410D02*
X826008D01*
X811022Y235712D02*
X814324Y232410D01*
X811022Y235712D02*
Y350266D01*
X813054Y352298D01*
X826008Y232410D02*
X826262Y232156D01*
X837438D01*
X840740Y235458D01*
Y306578D01*
X835914Y308610D02*
X840740Y313436D01*
X826008Y308610D02*
X835914D01*
X877062Y1140308D02*
X877316Y1140562D01*
X877062Y1119378D02*
Y1140308D01*
X960450Y1105230D02*
X965708Y1110488D01*
X1162050D01*
X960450Y1088847D02*
Y1105230D01*
X877316Y1162558D02*
Y1187958D01*
X1081024Y1106424D02*
X1165606D01*
X1199134Y1139952D01*
X1517650D01*
X1162050Y1110488D02*
X1195578Y1144016D01*
X1510030D01*
X1517650Y1139952D02*
X1554618Y1176920D01*
X1533534Y1207144D02*
X1534160Y1207770D01*
X1533534Y1167520D02*
Y1207144D01*
X1510030Y1144016D02*
X1533534Y1167520D01*
X1786382Y459283D02*
X1809496Y482397D01*
X1548384Y1226566D02*
X1554618Y1220332D01*
X1512062Y1226566D02*
X1548384D01*
X1509522Y1208532D02*
Y1224026D01*
X1512062Y1226566D01*
X1508760Y1207770D02*
X1509522Y1208532D01*
X1554618Y1176920D02*
Y1220332D01*
X1060450Y1085850D02*
X1081024Y1106424D01*
X1358900Y55880D02*
X1380490Y34290D01*
X1668018D01*
X1676908Y43180D01*
X1217422Y425450D02*
Y434086D01*
Y425450D02*
X1220724Y422148D01*
X935761Y423240D02*
X945109Y413893D01*
X1000201Y430581D02*
X1012825Y417957D01*
X945109Y413893D02*
X1304766D01*
X1156208Y283972D02*
Y318675D01*
X1165860Y289560D02*
X1196915Y258505D01*
X1172718Y289725D02*
Y351949D01*
X1180913Y293024D02*
Y356686D01*
X1151890Y280162D02*
X1185739Y246313D01*
X1129284Y319278D02*
X1149858D01*
X1161288Y288036D02*
X1194883Y254441D01*
X1151890Y280162D02*
Y317246D01*
X1185739Y246313D02*
X1229868D01*
X1151541Y323342D02*
X1156208Y318675D01*
X1184977Y294708D02*
Y358369D01*
X1176782Y291408D02*
Y353633D01*
X1149858Y319278D02*
X1151890Y317246D01*
X1161288Y288036D02*
Y351790D01*
X1156208Y283972D02*
X1189803Y250377D01*
X1165860Y289560D02*
Y352965D01*
X1129284Y323342D02*
X1151541D01*
X1118616Y232410D02*
X1142746D01*
X1118616Y334010D02*
X1129284Y323342D01*
X1118616Y308610D02*
X1129284Y319278D01*
X1189228Y296204D02*
Y379476D01*
Y296204D02*
X1202984Y282448D01*
X727710Y500380D02*
X728929D01*
X1642054Y77526D02*
X1663700Y55880D01*
X1434846Y310134D02*
X1435100Y309880D01*
X1434846Y310134D02*
Y329438D01*
X1437386Y331978D01*
X1217422Y434086D02*
X1222502Y439166D01*
X1257300Y309880D02*
Y343916D01*
X1226058Y375158D02*
X1257300Y343916D01*
X737819Y491490D02*
X758520D01*
X728929Y500380D02*
X737819Y491490D01*
X727710Y478790D02*
Y500380D01*
X705358Y470662D02*
X713486Y478790D01*
X727710D01*
X705358Y438150D02*
X722122Y421386D01*
X705358Y438150D02*
Y470662D01*
X444449Y506730D02*
X462229Y488950D01*
X469900D01*
X443230Y478790D02*
Y506730D01*
X444449D01*
X420878Y471678D02*
X427990Y478790D01*
X443230D01*
X420878Y436118D02*
Y471678D01*
Y436118D02*
X443738Y413258D01*
X605739Y491490D02*
X621360D01*
X589280Y506730D02*
X590499D01*
X605739Y491490D01*
X589280Y478790D02*
Y506730D01*
X564642Y467614D02*
X575818Y478790D01*
X589280D01*
X564642Y425958D02*
X573278Y417322D01*
X564642Y425958D02*
Y467614D01*
X1222502Y439166D02*
Y526796D01*
X810514Y467106D02*
X811530Y466090D01*
X754126Y467106D02*
X810514D01*
X745795Y458775D02*
X754126Y467106D01*
X727710Y458775D02*
X745795D01*
X609651D02*
X616966Y466090D01*
X674370D01*
X589280Y458775D02*
X609651D01*
X471170Y466090D02*
X525780D01*
X463855Y458775D02*
X471170Y466090D01*
X443230Y458775D02*
X463855D01*
X1000201Y430581D02*
Y450850D01*
X934542Y423240D02*
X935761D01*
X1092708Y258318D02*
Y343662D01*
Y258318D02*
X1118616Y232410D01*
X1612350Y56431D02*
X1612900Y55880D01*
X298450Y323342D02*
X303784Y328676D01*
X284226Y323342D02*
X298450D01*
X273558Y334010D02*
X284226Y323342D01*
Y319278D02*
X300133D01*
X307848Y326993D01*
X273558Y308610D02*
X284226Y319278D01*
X1561148Y56832D02*
Y92646D01*
Y56832D02*
X1562100Y55880D01*
X1560322Y93472D02*
X1561148Y92646D01*
X540258Y332740D02*
X550926Y322072D01*
X540258Y307340D02*
X550926Y318008D01*
X1509078Y58102D02*
X1511300Y55880D01*
X1306322Y57658D02*
X1308100Y55880D01*
X1306322Y57658D02*
Y85598D01*
X1317636Y96912D01*
X1333500Y55880D02*
Y143002D01*
X1571796Y325584D02*
X1587500Y309880D01*
X1563287Y325584D02*
X1571796D01*
X1020191Y450850D02*
X1021461Y452120D01*
X1032942D01*
X1041171Y443890D01*
Y442138D02*
Y443890D01*
X1593850Y387350D02*
Y434251D01*
X1691462Y386080D02*
Y438150D01*
X935812Y443814D02*
Y464820D01*
X930123Y470510D02*
Y480238D01*
Y470510D02*
X935812Y464820D01*
X523240Y488950D02*
X525780Y491490D01*
X489890Y488950D02*
X523240D01*
X778510Y491490D02*
X811530D01*
X641350D02*
X671830D01*
D13*
X877316Y1162558D02*
D03*
Y1140562D02*
D03*
D14*
X1050671Y462128D02*
D03*
X1060171Y442138D02*
D03*
X1041171D02*
D03*
X939622Y500228D02*
D03*
X949122Y480238D02*
D03*
X930123D02*
D03*
D15*
X1002182Y499110D02*
D03*
X1049401D02*
D03*
D16*
X622808Y138506D02*
D03*
Y204394D02*
D03*
X67818Y138506D02*
D03*
Y204394D02*
D03*
X344678Y138506D02*
D03*
Y204394D02*
D03*
X909828Y138506D02*
D03*
Y204394D02*
D03*
D40*
X1062482Y959764D02*
D03*
X1127481D02*
D03*
X1062482Y914756D02*
D03*
X1127481D02*
D03*
D45*
X1460652Y544830D02*
D03*
X1480668D02*
D03*
X1459789Y1171194D02*
D03*
X1479804D02*
D03*
D46*
X877316Y1207948D02*
D03*
Y1187958D02*
D03*
X934542Y423240D02*
D03*
Y443230D02*
D03*
X443230Y526720D02*
D03*
Y506730D02*
D03*
X589280Y526720D02*
D03*
Y506730D02*
D03*
X727710Y524510D02*
D03*
Y504520D02*
D03*
X1593850Y371170D02*
D03*
Y391160D02*
D03*
X1690954Y394716D02*
D03*
Y374726D02*
D03*
D47*
X635762Y491490D02*
D03*
X615772D02*
D03*
X488366Y488950D02*
D03*
X468376D02*
D03*
X774954Y491490D02*
D03*
X754964D02*
D03*
X1003452Y960120D02*
D03*
X1023442D02*
D03*
X1020191Y450850D02*
D03*
X1000201D02*
D03*
X1488770Y270764D02*
D03*
X1508760D02*
D03*
D48*
X1726692Y272542D02*
D03*
Y252527D02*
D03*
X443230Y458775D02*
D03*
Y478790D02*
D03*
X589280Y458775D02*
D03*
Y478790D02*
D03*
X727710Y458775D02*
D03*
Y478790D02*
D03*
D49*
X1498600Y544830D02*
Y582930D01*
X1487170Y594360D02*
X1498600Y582930D01*
X974090Y986790D02*
X988510D01*
X1003452Y971848D01*
Y960120D02*
Y971848D01*
X1705127Y252247D02*
X1726413D01*
X1726692Y252527D01*
X1704848Y251968D02*
X1705127Y252247D01*
X1487170Y678180D02*
X1811020D01*
X845566D02*
X1487170D01*
Y594360D02*
Y678180D01*
X928370Y1032510D02*
X974090Y986790D01*
X928370Y1032510D02*
Y1135228D01*
X991006Y1197864D01*
X1264069Y1213193D02*
X1323340Y1153922D01*
X1049481Y1213193D02*
X1264069D01*
X1034153Y1197864D02*
X1049481Y1213193D01*
X991006Y1197864D02*
X1034153D01*
X1479296Y1170686D02*
X1479804Y1171194D01*
X1483360Y1204545D02*
Y1207770D01*
X1323340Y1153922D02*
X1473454D01*
X924283Y1207948D02*
X929274Y1212939D01*
X975931D02*
X991006Y1197864D01*
X877316Y1207948D02*
X924283D01*
X929274Y1212939D02*
X975931D01*
X813054Y710692D02*
X845566Y678180D01*
X865886Y345948D02*
X890270Y321564D01*
Y317500D02*
Y321564D01*
X756920Y357886D02*
X769874Y370840D01*
X841502D01*
X1715008Y324866D02*
Y348996D01*
X1714754Y324612D02*
X1715008Y324866D01*
X1711244Y374726D02*
X1713860Y372110D01*
X1690954Y374726D02*
X1711244D01*
X1593850Y367360D02*
X1625512D01*
X1632878Y374726D01*
X1690954D01*
X1479296Y1159764D02*
Y1170686D01*
X1473454Y1153922D02*
X1479296Y1159764D01*
X1457960Y1207770D02*
X1459789Y1205941D01*
X146050Y307340D02*
X178816D01*
X184658Y313182D01*
X212344D01*
X548386Y710692D02*
X813054D01*
X1811020Y678180D02*
X1827276Y661924D01*
X422148Y608838D02*
X483108D01*
X386334D02*
X422148D01*
Y534416D02*
Y608838D01*
Y534416D02*
X429844Y526720D01*
X443230D01*
X355092Y362712D02*
X435610D01*
X336804D02*
X355092D01*
Y346456D02*
X394208Y307340D01*
X355092Y346456D02*
Y362712D01*
X336296Y362204D02*
X336804Y362712D01*
X336296Y362204D02*
X336928Y361572D01*
X394208Y307340D02*
X412750D01*
X212344Y382270D02*
Y508254D01*
Y313182D02*
Y382270D01*
X314706D02*
X315214Y382778D01*
X212344Y382270D02*
X314706D01*
X435610Y362712D02*
X440182Y358140D01*
X744728Y357886D02*
X756920D01*
X636270D02*
X744728D01*
X745236Y357378D01*
Y308610D02*
Y357378D01*
X600964Y357886D02*
X636270D01*
X636524Y357632D01*
Y338074D02*
Y357632D01*
X665988Y308610D02*
X698500D01*
X636524Y338074D02*
X665988Y308610D01*
X574040Y357632D02*
X574294Y357886D01*
X564642Y357632D02*
X574040D01*
X547477Y374796D02*
X564642Y357632D01*
X500958Y374796D02*
X547477D01*
X440944Y358902D02*
X484124D01*
X440182Y358140D02*
X440944Y358902D01*
X212344Y242824D02*
Y313182D01*
X745236Y308610D02*
X785876Y267970D01*
Y232918D02*
Y267970D01*
X548386Y1114552D02*
X604266Y1170432D01*
X548386Y710692D02*
Y1114552D01*
X1752346Y309880D02*
X1792478D01*
X1827276Y344678D01*
Y614172D01*
Y661924D01*
X1809496Y592531D02*
Y605282D01*
X1808480Y591515D02*
X1809496Y592531D01*
Y605282D02*
X1818386Y614172D01*
X1827276D01*
X548386Y674116D02*
Y710692D01*
X312928Y608838D02*
X386334D01*
X387096Y608076D01*
X212344Y508254D02*
X312928Y608838D01*
X483108D02*
X548386Y674116D01*
X1060171Y442138D02*
X1060336Y442303D01*
X1074255D01*
X1074420Y442468D01*
X949338Y480022D02*
X964476D01*
X964692Y479806D01*
X949122Y480238D02*
X949338Y480022D01*
X890270Y317500D02*
X899160Y308610D01*
X991108D01*
X809892Y197726D02*
X826008Y181610D01*
X809892Y197726D02*
Y208902D01*
X785876Y232918D02*
X809892Y208902D01*
X824116D01*
X826008Y207010D01*
X440182Y305816D02*
Y358140D01*
Y305816D02*
X540258Y205740D01*
X212344Y242824D02*
X273558Y181610D01*
X604266Y1170432D02*
Y1226058D01*
X726605Y525615D02*
X727710Y524510D01*
X590385Y525615D02*
X726605D01*
X589280Y526720D02*
X590385Y525615D01*
X443230Y526720D02*
X589280D01*
D50*
X970512Y605768D02*
X1069870D01*
X930910Y582930D02*
X947674D01*
X970026Y605282D01*
X950214Y657352D02*
X971550Y636016D01*
X990600D01*
X151315Y278524D02*
X152108D01*
X247066Y183566D01*
X147899Y281940D02*
X151315Y278524D01*
X247066Y60960D02*
Y183566D01*
X146050Y281940D02*
X147899D01*
X146050Y205740D02*
X173330Y178460D01*
X172060Y60960D02*
X173330Y62230D01*
Y178460D01*
X146050Y231140D02*
X146253D01*
X197053Y180340D01*
X659638Y181610D02*
X698500D01*
X139700Y186690D02*
X146050Y180340D01*
X659638Y156210D02*
X698500D01*
X385318D02*
X417068D01*
X123190Y154940D02*
X146050D01*
X119723Y151473D02*
X123190Y154940D01*
X69037Y151473D02*
X119723D01*
X412750Y180340D02*
X415798D01*
X386588D02*
X412750D01*
X991108Y283210D02*
X1093089Y181229D01*
Y60960D02*
Y181229D01*
X1068070Y60960D02*
Y180848D01*
X991108Y257810D02*
X1068070Y180848D01*
X1043076Y60960D02*
Y180442D01*
X991108Y232410D02*
X1043076Y180442D01*
X1018083Y60960D02*
Y180035D01*
X991108Y207010D02*
X1018083Y180035D01*
X800786Y60960D02*
Y180924D01*
X698500Y283210D02*
X800786Y180924D01*
X698500Y257810D02*
X775767Y180543D01*
X698500Y232410D02*
X750773Y180137D01*
Y60960D02*
Y180137D01*
X775767Y60960D02*
Y180543D01*
X725780Y60960D02*
Y179730D01*
X698500Y207010D02*
X725780Y179730D01*
X412750Y281940D02*
X516509Y178181D01*
Y60960D02*
Y178181D01*
X412750Y256540D02*
X491490Y177800D01*
Y60960D02*
Y177800D01*
X466496Y60960D02*
Y177394D01*
X412750Y231140D02*
X466496Y177394D01*
X441503Y60960D02*
Y176987D01*
X412750Y205740D02*
X441503Y176987D01*
X146050Y262890D02*
X222047Y186893D01*
Y60960D02*
Y186893D01*
X197053Y60960D02*
Y180340D01*
X344678Y203149D02*
X345897Y201930D01*
X344678Y203149D02*
Y204394D01*
X345897Y201930D02*
X364998D01*
X344678Y138506D02*
X367614D01*
X385318Y156210D01*
X622808Y138506D02*
X641934D01*
X659638Y156210D01*
X909828Y138506D02*
X930224D01*
X947928Y156210D01*
X991108D01*
X89484Y204394D02*
X107188Y186690D01*
X67818Y204394D02*
X89484D01*
X107188Y186690D02*
X139700D01*
X364998Y201930D02*
X386588Y180340D01*
X415798D02*
X417068Y181610D01*
X622808Y203149D02*
Y204394D01*
Y203149D02*
X624027Y201930D01*
X639318D01*
X659638Y181610D01*
X909828Y203149D02*
X911047Y201930D01*
X909828Y203149D02*
Y204394D01*
X911047Y201930D02*
X926338D01*
X946658Y181610D01*
X991108D01*
X851662Y642112D02*
X866902Y657352D01*
X541528Y642112D02*
X851662D01*
X494792Y687578D02*
Y754634D01*
Y687578D02*
X512826Y669544D01*
X470662Y778764D02*
X494792Y754634D01*
X866902Y657352D02*
X950214D01*
X67818Y145072D02*
Y150254D01*
Y138506D02*
Y145072D01*
Y150254D02*
X69037Y151473D01*
X1069870Y605768D02*
X1097458Y578180D01*
X1012571Y557530D02*
Y605028D01*
X1097458Y557530D02*
Y578180D01*
X924597Y560107D02*
Y576617D01*
X930910Y582930D01*
X923290Y558800D02*
X924597Y560107D01*
X118110Y778510D02*
X470662Y778764D01*
X1118616Y156210D02*
X1119886Y157480D01*
X1012571Y555681D02*
Y557530D01*
X1002182Y499110D02*
Y545293D01*
X1012571Y555681D01*
X1037590Y511645D02*
X1050671Y498564D01*
Y462128D02*
Y498564D01*
X1037590Y511645D02*
Y557530D01*
X939622Y500228D02*
Y516890D01*
X948309Y525577D01*
Y558800D01*
D51*
X34646Y178244D02*
X67818Y145072D01*
X848360Y21082D02*
X909828Y82550D01*
Y138506D01*
X695707Y21082D02*
X848360D01*
X685292Y31497D02*
Y70612D01*
Y31497D02*
X695707Y21082D01*
X665988Y89916D02*
X685292Y70612D01*
X622808Y89916D02*
X665988D01*
X552958Y20066D02*
X622808Y89916D01*
Y138506D01*
X413766Y20066D02*
X552958D01*
X400812Y33020D02*
X413766Y20066D01*
X400812Y33020D02*
Y53848D01*
X388112Y66548D02*
X400812Y53848D01*
X344678Y66548D02*
X388112D01*
X299212Y21082D02*
X344678Y66548D01*
Y138506D01*
X137160Y21082D02*
X299212D01*
X117856Y40386D02*
X137160Y21082D01*
X67818Y131940D02*
Y138506D01*
Y131940D02*
X117856Y81902D01*
Y40386D02*
Y81902D01*
X34646Y178244D02*
Y716280D01*
D52*
X1457960Y1207770D02*
D03*
D53*
X1483360D02*
D03*
X1534160D02*
D03*
X1508760D02*
D03*
D54*
X1357630Y505460D02*
D03*
D55*
X1383030D02*
D03*
X1408430D02*
D03*
X1433830D02*
D03*
X1459230D02*
D03*
X1484630D02*
D03*
X1714500Y55880D02*
D03*
X1689100D02*
D03*
X1663700D02*
D03*
X1638300D02*
D03*
X1612900D02*
D03*
X1587500D02*
D03*
X1562100D02*
D03*
X1536700D02*
D03*
X1511300D02*
D03*
X1485900D02*
D03*
X1460500D02*
D03*
X1435100D02*
D03*
X1409700D02*
D03*
X1384300D02*
D03*
X1358900D02*
D03*
X1333500D02*
D03*
X1308100D02*
D03*
X1282700D02*
D03*
X1257300D02*
D03*
X1231900D02*
D03*
X1206500D02*
D03*
X1714500Y309880D02*
D03*
X1689100D02*
D03*
X1663700D02*
D03*
X1638300D02*
D03*
X1612900D02*
D03*
X1587500D02*
D03*
X1562100D02*
D03*
X1536700D02*
D03*
X1511300D02*
D03*
X1485900D02*
D03*
X1460500D02*
D03*
X1435100D02*
D03*
X1409700D02*
D03*
X1384300D02*
D03*
X1358900D02*
D03*
X1333500D02*
D03*
X1308100D02*
D03*
X1282700D02*
D03*
X1257300D02*
D03*
X1231900D02*
D03*
X1206500D02*
D03*
X525780Y466090D02*
D03*
Y440690D02*
D03*
X674370Y466090D02*
D03*
Y440690D02*
D03*
X811530Y466090D02*
D03*
Y440690D02*
D03*
X247066Y60960D02*
D03*
X222047D02*
D03*
X197053D02*
D03*
X516509D02*
D03*
X491490D02*
D03*
X466496D02*
D03*
X800786D02*
D03*
X775767D02*
D03*
X750773D02*
D03*
X1093089D02*
D03*
X1068070D02*
D03*
X1043076D02*
D03*
D56*
X991006Y1197864D02*
D03*
X940918D02*
D03*
X1808480Y591515D02*
D03*
Y641604D02*
D03*
X952627Y1081024D02*
D03*
X1002614D02*
D03*
X1052627D02*
D03*
X1102614D02*
D03*
X1809496Y382397D02*
D03*
Y432384D02*
D03*
Y482397D02*
D03*
Y532384D02*
D03*
X34646Y716280D02*
D03*
X84734D02*
D03*
X1105814Y1198118D02*
D03*
X1055726D02*
D03*
X1728521Y627380D02*
D03*
X1678432D02*
D03*
X48260Y799186D02*
D03*
Y849274D02*
D03*
D57*
X114300Y933450D02*
D03*
Y1116330D02*
D03*
D58*
Y1009650D02*
D03*
Y1192530D02*
D03*
D59*
X146050Y154940D02*
D03*
X273558D02*
D03*
X698500D02*
D03*
X826008D02*
D03*
X412750D02*
D03*
X540258D02*
D03*
X991108Y156210D02*
D03*
X1118616D02*
D03*
D60*
X146050Y180340D02*
D03*
Y205740D02*
D03*
Y231140D02*
D03*
Y256540D02*
D03*
Y281940D02*
D03*
Y307340D02*
D03*
Y332740D02*
D03*
X273558Y180340D02*
D03*
Y205740D02*
D03*
Y231140D02*
D03*
Y256540D02*
D03*
Y281940D02*
D03*
Y307340D02*
D03*
Y332740D02*
D03*
X698500Y180340D02*
D03*
Y205740D02*
D03*
Y231140D02*
D03*
Y256540D02*
D03*
Y281940D02*
D03*
Y307340D02*
D03*
Y332740D02*
D03*
X826008Y180340D02*
D03*
Y205740D02*
D03*
Y231140D02*
D03*
Y256540D02*
D03*
Y281940D02*
D03*
Y307340D02*
D03*
Y332740D02*
D03*
X412750Y180340D02*
D03*
Y205740D02*
D03*
Y231140D02*
D03*
Y256540D02*
D03*
Y281940D02*
D03*
Y307340D02*
D03*
Y332740D02*
D03*
X540258Y180340D02*
D03*
Y205740D02*
D03*
Y231140D02*
D03*
Y256540D02*
D03*
Y281940D02*
D03*
Y307340D02*
D03*
Y332740D02*
D03*
X991108Y181610D02*
D03*
Y207010D02*
D03*
Y232410D02*
D03*
Y257810D02*
D03*
Y283210D02*
D03*
Y308610D02*
D03*
Y334010D02*
D03*
X1118616Y181610D02*
D03*
Y207010D02*
D03*
Y232410D02*
D03*
Y257810D02*
D03*
Y283210D02*
D03*
Y308610D02*
D03*
Y334010D02*
D03*
X1666443Y443484D02*
D03*
X1691462D02*
D03*
X1037590Y557530D02*
D03*
X1012571D02*
D03*
X1122477D02*
D03*
X1097458D02*
D03*
X948309Y558800D02*
D03*
X923290D02*
D03*
X1568831Y443484D02*
D03*
X1593850D02*
D03*
D61*
X1739900Y55880D02*
D03*
Y309880D02*
D03*
D62*
X525780Y491490D02*
D03*
X674370D02*
D03*
X811530D02*
D03*
D63*
X332740Y494030D02*
D03*
X604266Y1036828D02*
D03*
X193294D02*
D03*
X604266Y1226058D02*
D03*
X193294D02*
D03*
D64*
X332740Y458470D02*
D03*
D65*
X172060Y60960D02*
D03*
X441503D02*
D03*
X725780D02*
D03*
X1018083D02*
D03*
D66*
X1812290Y769620D02*
D03*
X676910Y1215390D02*
D03*
X1713230Y114300D02*
D03*
X769620Y980750D02*
D03*
X38100Y34290D02*
D03*
X849400Y606750D02*
D03*
Y980750D02*
D03*
X217400Y606750D02*
D03*
Y980750D02*
D03*
D67*
X865886Y345948D02*
D03*
X841502Y370840D02*
D03*
X1715008Y348996D02*
D03*
X1663954Y346456D02*
D03*
X1714754Y372110D02*
D03*
X1533652Y346964D02*
D03*
X1549146Y347472D02*
D03*
X1563878Y346710D02*
D03*
X1636522Y346202D02*
D03*
X1742186Y345694D02*
D03*
X1741678Y370840D02*
D03*
X1662938Y385064D02*
D03*
X1637030D02*
D03*
X1564132Y369062D02*
D03*
X1549400Y368554D02*
D03*
X1534655Y368795D02*
D03*
X1437132Y368300D02*
D03*
X1603248Y93980D02*
D03*
X1616710Y105410D02*
D03*
X1474216Y224536D02*
D03*
X1500124Y247142D02*
D03*
X990600Y636016D02*
D03*
X541528Y642112D02*
D03*
X512826Y669544D02*
D03*
X336296Y362204D02*
D03*
X316484Y381000D02*
D03*
X600964Y357886D02*
D03*
X574294D02*
D03*
X500958Y374796D02*
D03*
X484124Y358902D02*
D03*
X1424940Y224282D02*
D03*
X1404366Y231140D02*
D03*
X1387856Y216154D02*
D03*
X1318987Y438947D02*
D03*
X1382740Y408468D02*
D03*
X1393281Y419009D02*
D03*
X1348740Y420624D02*
D03*
X1359662Y430784D02*
D03*
X1372362Y397764D02*
D03*
X1404366Y429514D02*
D03*
X1370076Y441452D02*
D03*
X1442339Y240284D02*
D03*
X1294384Y208788D02*
D03*
X1266698Y189992D02*
D03*
X1328674Y160528D02*
D03*
X1312418Y147320D02*
D03*
X1503760Y102460D02*
D03*
X1517774Y115697D02*
D03*
X1226058Y429641D02*
D03*
X990346Y605282D02*
D03*
X1074420Y442468D02*
D03*
X964692Y479806D02*
D03*
X1380744Y452374D02*
D03*
X1245616Y396367D02*
D03*
X1225804Y392303D02*
D03*
X877062Y1119378D02*
D03*
X1704848Y251968D02*
D03*
X1245616Y429641D02*
D03*
X1437386Y342900D02*
D03*
X1437640Y395859D02*
D03*
Y418973D02*
D03*
X1333500Y425958D02*
D03*
X1559052Y92710D02*
D03*
X1571070Y102696D02*
D03*
M02*
