G04*
G04 #@! TF.GenerationSoftware,Altium Limited,Altium Designer,22.11.1 (43)*
G04*
G04 Layer_Color=16711935*
%FSLAX44Y44*%
%MOMM*%
G71*
G04*
G04 #@! TF.SameCoordinates,72847C5C-CB26-43ED-9D8D-7EBA7966BEA9*
G04*
G04*
G04 #@! TF.FilePolarity,Negative*
G04*
G01*
G75*
%ADD25R,1.8016X1.8016*%
%ADD26C,1.8016*%
%ADD27R,2.0041X2.0041*%
%ADD28C,1.8034*%
%ADD29C,2.0041*%
%ADD30C,2.2022*%
%ADD31C,3.2029*%
%ADD32R,3.2029X3.2029*%
%ADD33R,1.9025X1.7780*%
%ADD34C,1.9025*%
%ADD35R,1.8034X1.8034*%
%ADD36R,1.7018X1.6764*%
%ADD37C,1.7018*%
%ADD38R,1.9025X1.9025*%
%ADD39R,1.9025X1.9025*%
%ADD40C,1.8009*%
%ADD41R,1.7272X1.8034*%
%ADD42C,0.2032*%
%ADD43C,4.2032*%
%ADD44C,1.0414*%
D25*
X1457960Y1207770D02*
D03*
D26*
X1483360D02*
D03*
X1534160D02*
D03*
X1508760D02*
D03*
D27*
X1357630Y505460D02*
D03*
D28*
X1383030D02*
D03*
X1408430D02*
D03*
X1433830D02*
D03*
X1459230D02*
D03*
X1484630D02*
D03*
X1714500Y55880D02*
D03*
X1689100D02*
D03*
X1663700D02*
D03*
X1638300D02*
D03*
X1612900D02*
D03*
X1587500D02*
D03*
X1562100D02*
D03*
X1536700D02*
D03*
X1511300D02*
D03*
X1485900D02*
D03*
X1460500D02*
D03*
X1435100D02*
D03*
X1409700D02*
D03*
X1384300D02*
D03*
X1358900D02*
D03*
X1333500D02*
D03*
X1308100D02*
D03*
X1282700D02*
D03*
X1257300D02*
D03*
X1231900D02*
D03*
X1206500D02*
D03*
X1714500Y309880D02*
D03*
X1689100D02*
D03*
X1663700D02*
D03*
X1638300D02*
D03*
X1612900D02*
D03*
X1587500D02*
D03*
X1562100D02*
D03*
X1536700D02*
D03*
X1511300D02*
D03*
X1485900D02*
D03*
X1460500D02*
D03*
X1435100D02*
D03*
X1409700D02*
D03*
X1384300D02*
D03*
X1358900D02*
D03*
X1333500D02*
D03*
X1308100D02*
D03*
X1282700D02*
D03*
X1257300D02*
D03*
X1231900D02*
D03*
X1206500D02*
D03*
X247066Y60960D02*
D03*
X222047D02*
D03*
X197053D02*
D03*
X516509D02*
D03*
X491490D02*
D03*
X466496D02*
D03*
X800786D02*
D03*
X775767D02*
D03*
X750773D02*
D03*
X1093089D02*
D03*
X1068070D02*
D03*
X1043076D02*
D03*
D29*
X1062482Y959764D02*
D03*
X1127481D02*
D03*
X1062482Y914756D02*
D03*
X1127481D02*
D03*
D30*
X991006Y1197864D02*
D03*
X940918D02*
D03*
X1808480Y591515D02*
D03*
Y641604D02*
D03*
X952627Y1081024D02*
D03*
X1002614D02*
D03*
X1052627D02*
D03*
X1102614D02*
D03*
X1809496Y382397D02*
D03*
Y432384D02*
D03*
Y482397D02*
D03*
Y532384D02*
D03*
X34646Y716280D02*
D03*
X84734D02*
D03*
X1105814Y1198118D02*
D03*
X1055726D02*
D03*
X1728521Y627380D02*
D03*
X1678432D02*
D03*
X48260Y799186D02*
D03*
Y849274D02*
D03*
D31*
X114300Y933450D02*
D03*
Y1116330D02*
D03*
D32*
Y1009650D02*
D03*
Y1192530D02*
D03*
D33*
X146050Y154940D02*
D03*
X273558D02*
D03*
X698500D02*
D03*
X826008D02*
D03*
X412750D02*
D03*
X540258D02*
D03*
X991108Y156210D02*
D03*
X1118616D02*
D03*
D34*
X146050Y180340D02*
D03*
Y205740D02*
D03*
Y231140D02*
D03*
Y256540D02*
D03*
Y281940D02*
D03*
Y307340D02*
D03*
Y332740D02*
D03*
X273558Y180340D02*
D03*
Y205740D02*
D03*
Y231140D02*
D03*
Y256540D02*
D03*
Y281940D02*
D03*
Y307340D02*
D03*
Y332740D02*
D03*
X698500Y180340D02*
D03*
Y205740D02*
D03*
Y231140D02*
D03*
Y256540D02*
D03*
Y281940D02*
D03*
Y307340D02*
D03*
Y332740D02*
D03*
X826008Y180340D02*
D03*
Y205740D02*
D03*
Y231140D02*
D03*
Y256540D02*
D03*
Y281940D02*
D03*
Y307340D02*
D03*
Y332740D02*
D03*
X412750Y180340D02*
D03*
Y205740D02*
D03*
Y231140D02*
D03*
Y256540D02*
D03*
Y281940D02*
D03*
Y307340D02*
D03*
Y332740D02*
D03*
X540258Y180340D02*
D03*
Y205740D02*
D03*
Y231140D02*
D03*
Y256540D02*
D03*
Y281940D02*
D03*
Y307340D02*
D03*
Y332740D02*
D03*
X991108Y181610D02*
D03*
Y207010D02*
D03*
Y232410D02*
D03*
Y257810D02*
D03*
Y283210D02*
D03*
Y308610D02*
D03*
Y334010D02*
D03*
X1118616Y181610D02*
D03*
Y207010D02*
D03*
Y232410D02*
D03*
Y257810D02*
D03*
Y283210D02*
D03*
Y308610D02*
D03*
Y334010D02*
D03*
D35*
X1739900Y55880D02*
D03*
Y309880D02*
D03*
D36*
X525780Y491490D02*
D03*
X674370D02*
D03*
X811530D02*
D03*
D37*
X525780Y466090D02*
D03*
Y440690D02*
D03*
X674370Y466090D02*
D03*
Y440690D02*
D03*
X811530Y466090D02*
D03*
Y440690D02*
D03*
D38*
X332740Y494030D02*
D03*
X604266Y1036828D02*
D03*
X193294D02*
D03*
X604266Y1226058D02*
D03*
X193294D02*
D03*
D39*
X332740Y458470D02*
D03*
D40*
X1666443Y443484D02*
D03*
X1691462D02*
D03*
X1037590Y557530D02*
D03*
X1012571D02*
D03*
X1122477D02*
D03*
X1097458D02*
D03*
X948309Y558800D02*
D03*
X923290D02*
D03*
X1568831Y443484D02*
D03*
X1593850D02*
D03*
D41*
X172060Y60960D02*
D03*
X441503D02*
D03*
X725780D02*
D03*
X1018083D02*
D03*
D42*
X739140Y1027684D02*
D03*
X1817116Y719074D02*
D03*
X1827276D02*
D03*
X1837436D02*
D03*
X1847596D02*
D03*
Y708406D02*
D03*
X1837436D02*
D03*
X1827276D02*
D03*
X1817116D02*
D03*
X1382776D02*
D03*
X1392936D02*
D03*
X1403096D02*
D03*
X1413256D02*
D03*
Y719074D02*
D03*
X1403096D02*
D03*
X1392936D02*
D03*
X1382776D02*
D03*
X1004316D02*
D03*
X1014476D02*
D03*
X1024636D02*
D03*
X1034796D02*
D03*
Y708406D02*
D03*
X1024636D02*
D03*
X1014476D02*
D03*
X1004316D02*
D03*
X897636Y901700D02*
D03*
Y891540D02*
D03*
Y881380D02*
D03*
Y871220D02*
D03*
X908304D02*
D03*
Y881380D02*
D03*
Y891540D02*
D03*
Y901700D02*
D03*
X769620Y1027684D02*
D03*
X759460D02*
D03*
X749300D02*
D03*
X739140Y1038352D02*
D03*
X749300D02*
D03*
X759460D02*
D03*
X769620D02*
D03*
X642366Y1207262D02*
D03*
Y1217422D02*
D03*
Y1227582D02*
D03*
Y1237742D02*
D03*
X631698D02*
D03*
Y1227582D02*
D03*
Y1217422D02*
D03*
Y1207262D02*
D03*
D43*
X1812290Y769620D02*
D03*
X676910Y1215390D02*
D03*
X1713230Y114300D02*
D03*
X769620Y980750D02*
D03*
X38100Y34290D02*
D03*
X849400Y606750D02*
D03*
Y980750D02*
D03*
X217400Y606750D02*
D03*
Y980750D02*
D03*
D44*
X865886Y345948D02*
D03*
X841502Y370840D02*
D03*
X1715008Y348996D02*
D03*
X1663954Y346456D02*
D03*
X1714754Y372110D02*
D03*
X1533652Y346964D02*
D03*
X1549146Y347472D02*
D03*
X1563878Y346710D02*
D03*
X1636522Y346202D02*
D03*
X1742186Y345694D02*
D03*
X1741678Y370840D02*
D03*
X1662938Y385064D02*
D03*
X1637030D02*
D03*
X1564132Y369062D02*
D03*
X1549400Y368554D02*
D03*
X1534655Y368795D02*
D03*
X1437132Y368300D02*
D03*
X1603248Y93980D02*
D03*
X1616710Y105410D02*
D03*
X1474216Y224536D02*
D03*
X1500124Y247142D02*
D03*
X990600Y636016D02*
D03*
X541528Y642112D02*
D03*
X512826Y669544D02*
D03*
X336296Y362204D02*
D03*
X316484Y381000D02*
D03*
X600964Y357886D02*
D03*
X574294D02*
D03*
X500958Y374796D02*
D03*
X484124Y358902D02*
D03*
X1424940Y224282D02*
D03*
X1404366Y231140D02*
D03*
X1387856Y216154D02*
D03*
X1318987Y438947D02*
D03*
X1382740Y408468D02*
D03*
X1393281Y419009D02*
D03*
X1348740Y420624D02*
D03*
X1359662Y430784D02*
D03*
X1372362Y397764D02*
D03*
X1404366Y429514D02*
D03*
X1370076Y441452D02*
D03*
X1442339Y240284D02*
D03*
X1294384Y208788D02*
D03*
X1266698Y189992D02*
D03*
X1328674Y160528D02*
D03*
X1312418Y147320D02*
D03*
X1503760Y102460D02*
D03*
X1517774Y115697D02*
D03*
X1226058Y429641D02*
D03*
X990346Y605282D02*
D03*
X1074420Y442468D02*
D03*
X964692Y479806D02*
D03*
X1380744Y452374D02*
D03*
X1245616Y396367D02*
D03*
X1225804Y392303D02*
D03*
X877062Y1119378D02*
D03*
X1704848Y251968D02*
D03*
X1245616Y429641D02*
D03*
X1437386Y342900D02*
D03*
X1437640Y395859D02*
D03*
Y418973D02*
D03*
X1333500Y425958D02*
D03*
X1559052Y92710D02*
D03*
X1571070Y102696D02*
D03*
M02*
