M48
;Layer_Color=9474304
;FILE_FORMAT=4:4
METRIC,LZ
;TYPE=PLATED
T1F00S00C0.3302
T2F00S00C1.0211
T3F00S00C1.0490
T4F00S00C1.0998
T5F00S00C1.1000
T6F00S00C1.1989
T7F00S00C1.3005
T8F00S00C1.6993
;TYPE=NON_PLATED
T9F00S00C0.5080
T10F00S00C3.1000
%
T01
X0150376Y0010246
X01517774Y00115697
X01559052Y0009271
X0157107Y00102696
X01603248Y0009398
X0161671Y0010541
X01742186Y00345694
X01741678Y0037084
X01714754Y0037211
X01715008Y00348996
X01663954Y00346456
X01636522Y00346202
X0163703Y00385064
X01662938
X01564132Y00369062
X015494Y00368554
X01534655Y00368795
X01533652Y00346964
X01549146Y00347472
X01563878Y0034671
X01437386Y003429
X01437132Y003683
X0143764Y00395859
Y00418973
X01404366Y00429514
X01393281Y00419009
X0138274Y00408468
X01372362Y00397764
X01359662Y00430784
X0134874Y00420624
X013335Y00425958
X01370076Y00441452
X01380744Y00452374
X01387856Y00216154
X01404366Y0023114
X0142494Y00224282
X01442339Y00240284
X01474216Y00224536
X01500124Y00247142
X01704848Y00251968
X01294384Y00208788
X01266698Y00189992
X01312418Y0014732
X01328674Y00160528
X01318987Y00438947
X01245616Y00429641
X01226058
X01225804Y00392303
X01245616Y00396367
X0107442Y00442468
X00964692Y00479806
X00841502Y0037084
X00865886Y00345948
X00600964Y00357886
X00574294
X00500958Y00374796
X00484124Y00358902
X00336296Y00362204
X00316484Y00381
X00512826Y00669544
X00541528Y00642112
X009906Y00636016
X00990346Y00605282
X00877062Y01119378
T02
X0135763Y0050546
X0138303
X0140843
X0143383
X0145923
X0148463
T03
X012065Y0005588
X012319
X012573
X012827
X013081
X013335
X013589
X013843
X014097
X014351
X014605
X014859
X015113
X015367
X015621
X015875
X016129
X016383
X016637
X016891
X017145
X017399
Y0030988
X017145
X016891
X016637
X016383
X016129
X015875
X015621
X015367
X015113
X014859
X014605
X014351
X014097
X013843
X013589
X013335
X01568831Y00443484
X0159385
X01666443
X01691462
X013081Y0030988
X012827
X012573
X012319
X012065
X0092329Y005588
X00948309
X01012571Y0055753
X0103759
X01097458
X01122477
T04
X0017206Y0006096
X00197053
X00222047
X00247066
X00441503
X00466496
X0049149
X00516509
X0072578
X00750773
X00775767
X00800786
X01018083
X01043076
X0106807
X01093089
X01118616Y0015621
Y0018161
Y0020701
Y0023241
Y0025781
Y0028321
Y0030861
Y0033401
X00991108
Y0030861
Y0028321
Y0025781
Y0023241
Y0020701
Y0018161
Y0015621
X00826008Y0015494
Y0018034
Y0020574
Y0023114
Y0025654
Y0028194
Y0030734
Y0033274
X0081153Y0044069
Y0046609
Y0049149
X0067437
Y0046609
Y0044069
X006985Y0033274
Y0030734
Y0028194
Y0025654
Y0023114
Y0020574
Y0018034
Y0015494
X00540258
Y0018034
Y0020574
Y0023114
Y0025654
Y0028194
Y0030734
Y0033274
X0052578Y0044069
Y0046609
Y0049149
X0033274Y0049403
Y0045847
X00273558Y0033274
Y0030734
Y0028194
Y0025654
Y0023114
Y0020574
Y0018034
Y0015494
X0014605
Y0018034
Y0020574
Y0023114
Y0025654
Y0028194
Y0030734
Y0033274
X0041275
Y0030734
Y0028194
Y0025654
Y0023114
Y0020574
Y0018034
Y0015494
X00604266Y01036828
Y01226058
X00193294
Y01036828
T05
X0145796Y0120777
X0148336
X0150876
X0153416
T06
X00034646Y0071628
X00084734
X0004826Y00799186
Y00849274
X01062482Y00914756
X01127481
X01678432Y0062738
X01728521
X0180848Y00641604
Y00591515
X01127481Y00959764
X01062482
X01055726Y01198118
X01105814
X00991006Y01197864
X00940918
T07
X01809496Y00382397
Y00432384
Y00482397
Y00532384
X01102614Y01081024
X01052627
X01002614
X00952627
T08
X001143Y0093345
Y0100965
Y0111633
Y0119253
T09
X00897636Y0087122
Y0088138
Y0089154
Y009017
X00908304
Y0089154
Y0088138
Y0087122
X01004316Y00719074
X01014476
X01024636
X01034796
Y00708406
X01024636
X01014476
X01004316
X01382776
X01392936
X01403096
X01413256
Y00719074
X01403096
X01392936
X01382776
X01817116
X01827276
X01837436
X01847596
Y00708406
X01837436
X01827276
X01817116
X0076962Y01027684
X0075946
X007493
X0073914
Y01038352
X007493
X0075946
X0076962
X00642366Y01207262
Y01217422
Y01227582
Y01237742
X00631698
Y01227582
Y01217422
Y01207262
T10
X000381Y0003429
X0171323Y001143
X002174Y0060675
X008494
X0181229Y0076962
X008494Y0098075
X0076962Y0098075
X0067691Y0121539
X002174Y0098075
M30
